<?xml version="1.0" encoding="UTF-8"?>
<svg xmlns="http://www.w3.org/2000/svg" xmlns:xlink="http://www.w3.org/1999/xlink" width="25px" height="25px" viewBox="0 0 25 25" version="1.1">
<g id="surface1">
<path style="fill-rule:evenodd;fill:rgb(100%,100%,100%);fill-opacity:1;stroke-width:0.144;stroke-linecap:butt;stroke-linejoin:miter;stroke:rgb(100%,100%,100%);stroke-opacity:1;stroke-miterlimit:4;" d="M 4.00125 4.99875 C 3.44625 4.99875 3 5.44875 3 6 C 3 6.55125 3.44625 7.00125 4.00125 7.00125 L 19.99875 7.00125 C 20.55375 7.00125 21 6.55125 21 6 C 21 5.44875 20.55375 4.99875 19.99875 4.99875 Z M 7.00125 12 C 7.00125 11.44875 7.4475 10.99875 7.99875 10.99875 L 19.99875 10.99875 C 20.55375 10.99875 21 11.44875 21 12 C 21 12.55125 20.55375 13.00125 19.99875 13.00125 L 7.99875 13.00125 C 7.4475 13.00125 7.00125 12.55125 7.00125 12 Z M 13.00125 18 C 13.00125 17.44875 13.4475 16.99875 13.99875 16.99875 L 19.99875 16.99875 C 20.55375 16.99875 21 17.44875 21 18 C 21 18.55125 20.55375 19.00125 19.99875 19.00125 L 13.99875 19.00125 C 13.4475 19.00125 13.00125 18.55125 13.00125 18 Z M 13.00125 18 " transform="matrix(1.041667,0,0,1.041667,0,0)"/>
</g>
</svg>
